<svg width="134" height="25" viewBox="0 0 134 25" fill="none" xmlns="http://www.w3.org/2000/svg">
<path d="M0 8.61107L7.80363 1.14395C7.80363 1.13869 7.80572 1.13365 7.80943 1.12993C7.81315 1.12621 7.81819 1.12411 7.82345 1.1241L23.3953 1.10352V16.5852H15.4817V8.69293L0 8.61107Z" fill="#0553B1"/>
<path d="M7.91352 10.1011V16.5851H23.395L15.6673 24.162L0 24.1743V10.1011H7.91352Z" fill="#041E3C"/>
<path d="M38.2546 3.21098C39.4758 3.86755 40.4754 4.87087 41.1274 6.09454C41.825 7.43401 42.1735 8.92776 42.1408 10.4376C42.1756 11.9402 41.8268 13.4269 41.1275 14.7573C40.4701 15.9709 39.4713 16.9652 38.2546 17.6171C36.9269 18.3134 35.4443 18.6617 33.9453 18.6296H28.5113V2.19879H33.9453C35.4442 2.16684 36.9267 2.51507 38.2546 3.21098ZM37.6199 14.4161C38.5107 13.4742 38.9561 12.148 38.9561 10.4376C39.0427 8.97779 38.5642 7.54065 37.6199 6.424C37.1288 5.92641 36.5368 5.53977 35.8838 5.2901C35.2307 5.04042 34.5318 4.9335 33.834 4.97652H31.6292V15.8284H33.834C34.5288 15.8717 35.225 15.7684 35.8772 15.5251C36.5295 15.2818 37.1233 14.9039 37.6199 14.4161Z" fill="white"/>
<path d="M44.4234 8.55459C44.8669 7.59679 45.5687 6.78164 46.45 6.20073C47.3026 5.65169 48.2977 5.36516 49.3117 5.37672C50.1548 5.35764 50.9881 5.56052 51.7281 5.96502C52.3858 6.32822 52.9529 6.83526 53.3872 7.44831V5.58866H56.5275V18.6296H53.3872V16.7227C52.9645 17.355 52.3953 17.8758 51.7281 18.2409C50.982 18.6515 50.141 18.8585 49.2896 18.8412C48.2795 18.8499 47.2902 18.5547 46.45 17.9941C45.569 17.3974 44.8682 16.571 44.4234 15.6044C43.9084 14.4957 43.6532 13.2841 43.6773 12.0619C43.654 10.8511 43.9092 9.6511 44.4234 8.55459ZM52.9419 10.0493C52.6719 9.50621 52.2553 9.04957 51.7392 8.73105C51.2506 8.42959 50.6876 8.27059 50.1135 8.27199C49.5477 8.26847 48.9922 8.42342 48.51 8.71932C48.0011 9.03802 47.5891 9.48981 47.3186 10.0258C47.0008 10.6565 46.844 11.356 46.8621 12.0619C46.8458 12.7753 47.0025 13.4821 47.3186 14.1218C47.5898 14.6733 48.0054 15.141 48.5212 15.4752C48.9954 15.7825 49.5484 15.9459 50.1135 15.946C50.6876 15.9474 51.2506 15.7884 51.7392 15.4869C52.2554 15.1685 52.672 14.7118 52.9419 14.1687C53.254 13.528 53.4068 12.8215 53.3873 12.1091C53.4067 11.3967 53.2539 10.6901 52.9419 10.0493Z" fill="white"/>
<path d="M64.2662 5.98872C64.9356 5.58994 65.7031 5.38607 66.4822 5.40009V8.86056H65.6581C64.852 8.80047 64.055 9.0629 63.4423 9.59016C62.9447 10.0769 62.696 10.9243 62.6963 12.1325V18.6296H59.5784V5.5886H62.6963V7.61298C63.0733 6.9471 63.6135 6.38814 64.2662 5.98872Z" fill="white"/>
<path d="M72.2055 8.29511V14.604C72.1896 14.7749 72.208 14.9472 72.2597 15.1109C72.3113 15.2746 72.3951 15.4264 72.5061 15.5572C72.7935 15.7818 73.1563 15.8872 73.5193 15.8516H74.967V18.6293H73.0071C70.3792 18.6293 69.0653 17.2797 69.0653 14.5805V8.29513H67.5954V5.58834H69.0653V2.36328H72.2055V5.58834H74.967V8.29511H72.2055Z" fill="white"/>
<path d="M96.2015 6.87143C97.1292 7.85237 97.5932 9.2216 97.5934 10.9791V18.6297H94.4755V11.4265C94.5331 10.5811 94.2708 9.74494 93.7406 9.08399C93.4856 8.81106 93.1742 8.59702 92.8281 8.45679C92.4819 8.31656 92.1094 8.2535 91.7364 8.27203C91.3617 8.25423 90.9877 8.31756 90.6398 8.4577C90.292 8.59784 89.9785 8.81148 89.7208 9.08399C89.1837 9.74172 88.917 10.5792 88.9748 11.4265V18.6297H85.8569V11.4265C85.9145 10.5811 85.6522 9.74498 85.122 9.08399C84.867 8.81106 84.5556 8.59702 84.2094 8.45679C83.8632 8.31655 83.4906 8.2535 83.1176 8.27203C82.7395 8.25279 82.3618 8.31538 82.0101 8.45551C81.6584 8.59565 81.3411 8.81003 81.0799 9.08402C80.5427 9.74175 80.276 10.5793 80.3339 11.4265V18.6297H77.216V5.58869H80.3339V7.16574C80.7369 6.61482 81.2682 6.17049 81.8817 5.87129C82.5293 5.55348 83.2425 5.39212 83.9639 5.40019C84.8671 5.38451 85.7584 5.60791 86.5474 6.04775C87.3027 6.4774 87.9147 7.12014 88.3068 7.89564C88.7092 7.14035 89.3147 6.51251 90.0549 6.08288C91.0247 5.52422 92.151 5.29885 93.2611 5.44126C94.3712 5.58368 95.4041 6.08606 96.2015 6.87143Z" fill="white"/>
<path d="M100.767 3.48145C100.587 3.30083 100.447 3.08567 100.353 2.84901C100.259 2.61234 100.214 2.35909 100.221 2.10462C100.214 1.85009 100.259 1.5968 100.353 1.36009C100.447 1.12337 100.587 0.908152 100.767 0.727456C101.135 0.37262 101.626 0.174316 102.136 0.174316C102.647 0.174316 103.138 0.37262 103.506 0.727456C103.685 0.908216 103.826 1.12345 103.92 1.36015C104.014 1.59685 104.059 1.8501 104.052 2.10462C104.059 2.35908 104.014 2.6123 103.92 2.84895C103.826 3.0856 103.685 3.30077 103.506 3.48145C103.139 3.83648 102.647 4.03491 102.136 4.03491C101.625 4.03491 101.134 3.83648 100.767 3.48145ZM103.673 5.58852V18.6295H100.555V5.58852H103.673Z" fill="white"/>
<path d="M117.147 6.87115C118.052 7.85208 118.505 9.22132 118.505 10.9788V18.6294H115.387V11.4262C115.444 10.5665 115.183 9.71597 114.652 9.03683C114.401 8.7577 114.091 8.53794 113.744 8.39346C113.398 8.24897 113.023 8.18337 112.648 8.20142C112.268 8.18262 111.888 8.24772 111.536 8.39209C111.184 8.53647 110.868 8.75659 110.61 9.03683C110.073 9.71276 109.807 10.5647 109.864 11.4262V18.6294H106.746V5.58841H109.864V7.21234C110.28 6.64734 110.826 6.19119 111.457 5.88272C112.118 5.55737 112.846 5.39199 113.583 5.3999C114.248 5.37433 114.911 5.49254 115.526 5.74645C116.141 6.00036 116.694 6.38399 117.147 6.87115Z" fill="white"/>
<path d="M121.411 8.55462C121.857 7.59454 122.563 6.77891 123.449 6.20076C124.306 5.65254 125.305 5.36618 126.322 5.37675C127.12 5.37589 127.906 5.56553 128.616 5.92989C129.308 6.26873 129.905 6.77431 130.353 7.40113V1.21045H133.515V18.6297H130.353V16.699C129.958 17.3515 129.397 17.8876 128.727 18.2526C127.983 18.6565 127.146 18.8594 126.3 18.8413C125.286 18.8489 124.294 18.554 123.449 17.9941C122.563 17.4002 121.858 16.5733 121.411 15.6045C120.896 14.4958 120.641 13.2842 120.665 12.062C120.642 10.8511 120.897 9.65112 121.411 8.55462ZM129.93 10.0493C129.66 9.50624 129.243 9.0496 128.727 8.73107C128.239 8.42961 127.676 8.27062 127.102 8.27202C126.536 8.26849 125.98 8.42345 125.498 8.71935C124.989 9.03804 124.577 9.48984 124.307 10.0258C123.989 10.6565 123.832 11.356 123.85 12.0619C123.834 12.7754 123.99 13.4821 124.307 14.1218C124.578 14.6734 124.993 15.1411 125.509 15.4752C125.983 15.7825 126.536 15.946 127.102 15.946C127.676 15.9474 128.239 15.7884 128.727 15.487C129.243 15.1685 129.66 14.7119 129.93 14.1687C130.242 13.5281 130.395 12.8215 130.375 12.1092C130.395 11.3967 130.242 10.6901 129.93 10.0493Z" fill="white"/>
</svg>
